<?xml version="1.0" encoding="UTF-8" standalone="no"?>
<!-- Created with Inkscape (http://www.inkscape.org/) -->

<svg
   xmlns:dc="http://purl.org/dc/elements/1.1/"
   xmlns:cc="http://creativecommons.org/ns#"
   xmlns:rdf="http://www.w3.org/1999/02/22-rdf-syntax-ns#"
   xmlns:svg="http://www.w3.org/2000/svg"
   xmlns="http://www.w3.org/2000/svg"
   xmlns:sodipodi="http://sodipodi.sourceforge.net/DTD/sodipodi-0.dtd"
   xmlns:inkscape="http://www.inkscape.org/namespaces/inkscape"
   width="255"
   height="255"
   id="svg2"
   version="1.1"
   inkscape:version="0.48.4 r9939"
   sodipodi:docname="newcrosshairs.svg"
   inkscape:export-filename="/home/tyler/.vendetta/plugins/hudcontrast/images/newcrosshairs.png"
   inkscape:export-xdpi="90"
   inkscape:export-ydpi="90">
  <defs
     id="defs4" />
  <sodipodi:namedview
     id="base"
     pagecolor="#ffffff"
     bordercolor="#666666"
     borderopacity="1.0"
     inkscape:pageopacity="0.0"
     inkscape:pageshadow="2"
     inkscape:zoom="2"
     inkscape:cx="58.285191"
     inkscape:cy="74.466108"
     inkscape:document-units="px"
     inkscape:current-layer="layer1"
     showgrid="false"
     inkscape:window-width="1920"
     inkscape:window-height="1055"
     inkscape:window-x="1920"
     inkscape:window-y="0"
     inkscape:window-maximized="1" />
  <metadata
     id="metadata7">
    <rdf:RDF>
      <cc:Work
         rdf:about="">
        <dc:format>image/svg+xml</dc:format>
        <dc:type
           rdf:resource="http://purl.org/dc/dcmitype/StillImage" />
        <dc:title></dc:title>
      </cc:Work>
    </rdf:RDF>
  </metadata>
  <g
     inkscape:label="Layer 1"
     inkscape:groupmode="layer"
     id="layer1"
     transform="translate(0,-797.36218)">
    <g
       id="g4059"
       transform="translate(300,-60.00003)"
       style="fill:#ffffff">
      <path
         id="path3775"
         transform="translate(0,797.36218)"
         d="m -175,145.09375 0,24.78125 5,0 0,-24.78125 -5,0 z"
         style="opacity:0.90000000000000002;fill:#ffffff;fill-opacity:1;stroke:none"
         inkscape:connector-curvature="0" />
      <path
         id="path3775-5"
         transform="translate(0,797.36218)"
         d="m -175,204.90625 0,25 c 0.82461,-0.025 1.66991,-0.0937 2.5,-0.0937 0.83008,0 1.67539,0.0697 2.5,0.0937 l 0,-25 -5,0 z"
         style="opacity:0.90000000000000002;fill:#ffffff;fill-opacity:1;stroke:none"
         inkscape:connector-curvature="0" />
      <path
         id="path3775-5-0"
         transform="translate(0,797.36218)"
         d="m -214.90625,184.90625 c 0.025,0.82461 0.0937,1.66991 0.0937,2.5 0,0.83008 -0.0697,1.64414 -0.0937,2.46875 l 24.90625,0 0,-4.96875 -24.90625,0 z"
         style="opacity:0.90000000000000002;fill:#ffffff;fill-opacity:1;stroke:none"
         inkscape:connector-curvature="0" />
      <path
         id="path3775-5-0-7"
         transform="translate(0,797.36218)"
         d="m -155,184.90625 0,4.96875 24.90625,0 0,-4.96875 -24.90625,0 z"
         style="opacity:0.90000000000000002;fill:#ffffff;fill-opacity:1;stroke:none"
         inkscape:connector-curvature="0" />
      <path
         transform="translate(0,797.36218)"
         id="path3957"
         d="m -175,184.90625 0,4.96875 5,0 0,-4.96875 -5,0 z"
         style="opacity:0.90000000000000002;fill:#ffffff;fill-opacity:1;stroke:none"
         inkscape:connector-curvature="0" />
    </g>
  </g>
</svg>
